<svg xmlns="http://www.w3.org/2000/svg" xmlns:xlink="http://www.w3.org/1999/xlink" width="1920" zoomAndPan="magnify" viewBox="0 0 1440 809.999993" height="1080" preserveAspectRatio="xMidYMid meet" version="1.0">
  <defs>
    <clipPath id="eb9c81a97e">
      <path class="path" d="M 0.0742188 0.175781 L 309.824219 0.175781 L 309.824219 728.820312 L 0.0742188 728.820312 Z M 0.0742188 0.175781 " clip-rule="nonzero" />
    </clipPath>
    <clipPath id="70c7615fbb">
      <path class="path" d="M 928.492188 293.335938 L 1439.992188 293.335938 L 1439.992188 810 L 928.492188 810 Z M 928.492188 293.335938 " clip-rule="nonzero" />
    </clipPath>
  </defs>
  <g clip-path="url(#eb9c81a97e)">
    <path class="path" fill="None" d="M 4.902344 706.523438 C 10.578125 695.144531 17.109375 681.007812 20.199219 673.402344 C 24.628906 662.523438 28.257812 654.027344 32.175781 645.367188 C 38.042969 632.410156 38.539062 631.25 39.640625 627.785156 C 42.050781 620.257812 43.375 609.566406 44.449219 588.964844 C 44.722656 583.734375 45.242188 575.03125 45.601562 569.621094 C 45.957031 564.210938 46.398438 556.980469 46.574219 553.554688 C 47.023438 544.808594 47.175781 543.117188 48.085938 536.992188 C 49.988281 524.144531 51.777344 516.8125 55.003906 508.628906 C 58.480469 499.816406 60.515625 496.53125 66.089844 490.757812 C 75.121094 481.394531 78.445312 476.699219 80.316406 470.628906 C 81.332031 467.339844 82.679688 456.96875 82.878906 450.917969 C 83.066406 445.105469 82.714844 442.285156 80.464844 431.730469 C 78.929688 424.519531 77.140625 419.28125 73.203125 410.417969 C 68.121094 398.988281 61.832031 380.886719 58.390625 367.804688 C 54.207031 351.90625 52.578125 345.585938 49.226562 332.210938 C 47.234375 324.273438 44.792969 314.757812 43.796875 311.0625 C 40.3125 298.132812 39.273438 291.484375 38.675781 278.363281 C 38.207031 268.003906 38.519531 262.605469 40.488281 246.78125 C 43.234375 224.808594 45.5625 216.566406 52.46875 204.355469 C 56.734375 196.8125 58.894531 193.824219 67.800781 183.117188 C 77.628906 171.296875 80.277344 167.921875 85.984375 159.894531 C 93.675781 149.082031 97.007812 144.613281 104.542969 135.035156 C 116.449219 119.894531 117.59375 118.390625 122.113281 112.023438 C 128.25 103.359375 131.414062 99.613281 139.648438 91.25 C 150.78125 79.949219 160.34375 74.011719 173.539062 70.210938 C 181.457031 67.933594 184.472656 67.585938 196.402344 67.597656 C 207.515625 67.609375 208.257812 67.660156 227.386719 69.726562 C 239.085938 70.988281 243.492188 71.195312 248.691406 70.722656 C 260.386719 69.652344 265.042969 67.375 273.632812 58.535156 C 277.609375 54.441406 280.351562 50.921875 282.699219 46.910156 C 284.628906 43.609375 289.617188 33.007812 291.566406 28.074219 C 299.742188 7.363281 300.550781 5.484375 302.828125 1.921875 L 303.925781 0.203125 L 309.824219 0.203125 L 307.402344 3.890625 C 303.15625 10.363281 302.578125 11.667969 295.757812 30.042969 C 290.425781 44.410156 285.007812 55.1875 279.960938 61.4375 C 277.042969 65.058594 270.953125 71.023438 268.203125 72.949219 C 260.484375 78.375 250.054688 79.609375 230.496094 77.421875 C 200.367188 74.050781 189.226562 73.957031 177.558594 76.949219 C 163.496094 80.558594 152.640625 87.292969 140.730469 99.792969 C 133.808594 107.058594 131.214844 110.1875 125.453125 118.25 C 122.683594 122.125 116.230469 130.613281 111.105469 137.101562 C 99.996094 151.199219 97.722656 154.214844 89.90625 165.171875 C 83.238281 174.527344 81.097656 177.265625 70.839844 189.570312 C 62.9375 199.050781 61.359375 201.160156 58.03125 206.722656 C 52.863281 215.359375 50.011719 221.894531 48.035156 229.574219 C 46.429688 235.859375 45.742188 239.921875 44.082031 252.929688 C 42.726562 263.570312 42.574219 265.503906 42.414062 273.707031 C 42.105469 289.839844 43.277344 299.398438 47.398438 314.503906 C 48.191406 317.390625 50.75 327.355469 53.097656 336.636719 C 58.597656 358.46875 62.296875 372.585938 64.175781 378.941406 C 66.628906 387.238281 72.691406 403.878906 75.828125 410.910156 C 80.851562 422.1875 82.804688 428.351562 85.058594 440.09375 C 87.230469 451.394531 87.292969 453.824219 85.722656 466.25 C 84.726562 474.1875 84.050781 476.9375 82.136719 480.789062 C 79.707031 485.710938 76.617188 489.660156 68.796875 497.855469 C 66.863281 499.882812 64.671875 502.472656 63.9375 503.613281 C 60.316406 509.214844 56.117188 520.199219 54.269531 528.921875 C 52.691406 536.359375 51.195312 546.808594 50.832031 552.847656 C 50.636719 556.121094 50.046875 565.660156 49.523438 574.046875 C 48.992188 582.429688 48.410156 592.394531 48.222656 596.179688 C 47.40625 612.914062 45.8125 625.695312 43.609375 633.140625 C 42.785156 635.914062 41.160156 639.761719 36.015625 651.105469 C 33.769531 656.0625 30.371094 663.886719 28.46875 668.484375 C 21.265625 685.898438 20.007812 688.84375 16.875 695.703125 C 11.304688 707.90625 0.753906 728.820312 0.167969 728.820312 C 0.09375 728.820312 0.0429688 725.980469 0.0546875 722.507812 L 0.0742188 716.195312 Z M 0.332031 651.578125 C 0.496094 651.414062 3.648438 645.292969 7.332031 637.992188 C 12.191406 628.351562 14.578125 623.222656 16.015625 619.296875 C 19.050781 611.046875 20.597656 606.230469 21.804688 601.3125 C 22.414062 598.855469 23.660156 594.101562 24.578125 590.757812 C 27.246094 581.03125 28.492188 574.011719 30.195312 559.1875 C 31.265625 549.851562 31.925781 545.765625 33.5 538.632812 C 37.597656 520.144531 42.789062 504.25 51.597656 483.214844 C 56.015625 472.671875 56.460938 470.628906 57.074219 458.128906 C 58.332031 432.410156 56.214844 417.9375 47.683594 393.859375 C 45.917969 388.878906 43.695312 383.078125 38.949219 371.074219 C 34.808594 360.605469 33.886719 357.78125 31.820312 349.265625 C 29.886719 341.273438 29.179688 337.625 28.066406 329.75 C 27.59375 326.414062 26.335938 319.332031 25.265625 314.011719 C 23 302.722656 22.421875 298.390625 22.128906 290.652344 C 21.632812 277.414062 23.050781 264.753906 27.394531 243.679688 C 29.128906 235.238281 29.566406 233.535156 33.078125 221.539062 C 37.410156 206.757812 39.054688 202.4375 44.660156 191.125 C 49.679688 181.011719 52.929688 176.40625 61.148438 167.769531 C 68.433594 160.117188 69.800781 158.417969 77.738281 147.105469 C 82.515625 140.308594 91 129.503906 97.699219 121.695312 C 99.707031 119.347656 102.710938 115.441406 104.375 113.011719 C 113.664062 99.445312 121.789062 90.078125 131.164062 82.125 C 133.417969 80.210938 137.492188 76.75 140.210938 74.429688 C 148.925781 66.992188 153.277344 64.339844 162.636719 60.765625 C 168.945312 58.347656 173.632812 56.957031 182.226562 54.941406 C 195.894531 51.738281 193.398438 51.992188 214.105469 51.679688 C 238.765625 51.3125 241.136719 51.207031 243.683594 50.347656 C 246.15625 49.523438 253.753906 45.320312 256.742188 43.128906 C 260.179688 40.609375 263.28125 37.089844 267.109375 31.351562 C 272.03125 23.980469 278.117188 12.761719 279.8125 7.90625 C 280.320312 6.464844 281.253906 4.140625 281.890625 2.742188 L 283.046875 0.203125 L 284.964844 0.203125 C 286.023438 0.203125 286.886719 0.238281 286.886719 0.28125 C 286.886719 1.0625 283.726562 9.226562 282.289062 12.167969 C 278.6875 19.535156 272.277344 29.890625 267.980469 35.285156 C 264.265625 39.949219 257.21875 46.519531 253.121094 49.136719 C 249.234375 51.613281 242.109375 55.410156 239.570312 56.347656 C 236.917969 57.332031 236.808594 57.34375 226.730469 57.710938 C 221.140625 57.914062 211.636719 58.035156 205.617188 57.984375 C 199.382812 57.929688 193.316406 58.039062 191.523438 58.238281 C 187.824219 58.644531 176.066406 61.308594 168.953125 63.34375 C 163.285156 64.972656 154.085938 68.515625 150.671875 70.386719 C 147.832031 71.941406 144.417969 74.347656 141.78125 76.652344 C 140.679688 77.621094 137.210938 80.617188 134.078125 83.3125 C 130.941406 86.011719 126.707031 89.84375 124.664062 91.835938 C 120.378906 96.015625 113.820312 104.160156 108.5625 111.855469 C 106.554688 114.800781 102.679688 119.835938 99.953125 123.058594 C 91.601562 132.917969 86.082031 139.957031 80.09375 148.378906 C 70.613281 161.71875 68.972656 163.761719 60.109375 173.3125 C 53.652344 180.265625 52.355469 182.152344 47.960938 190.988281 C 43.226562 200.507812 42.207031 203.101562 38.445312 215.148438 C 33.511719 230.96875 32.628906 234.371094 29.746094 248.757812 C 26.675781 264.042969 25.851562 271.648438 25.828125 284.996094 C 25.804688 294.667969 26.171875 298.378906 28.253906 309.753906 C 28.964844 313.628906 29.984375 320.042969 30.523438 324.011719 C 31.765625 333.171875 32.472656 336.898438 34.457031 344.835938 C 36.515625 353.054688 37.324219 355.339844 43.285156 369.710938 C 54.164062 395.953125 57.824219 407.878906 59.878906 423.863281 C 60.609375 429.484375 60.835938 442.96875 60.386719 453.046875 C 59.929688 463.085938 59.625 465.90625 58.335938 471.851562 C 57.078125 477.660156 55.679688 481.691406 51.246094 492.234375 C 42.351562 513.398438 36.054688 534.957031 34.109375 550.929688 C 33.738281 553.996094 33.074219 559.457031 32.628906 563.066406 C 31.546875 571.886719 29.789062 581.457031 27.902344 588.800781 C 20.011719 619.433594 18.03125 625.023438 8.203125 644.382812 C 4.8125 651.054688 1.589844 657.328125 1.042969 658.320312 L 0.0429688 660.121094 L 0.03125 656.007812 C 0.03125 653.746094 0.160156 651.75 0.328125 651.578125 Z M 1.054688 584.378906 C 4.082031 576.355469 12.523438 545.257812 14.9375 533.21875 C 15.554688 530.15625 16.734375 523 17.558594 517.320312 C 19.449219 504.3125 19.636719 503.195312 22 491.246094 C 25.015625 475.953125 25.953125 469.15625 26.410156 459.277344 C 26.523438 456.84375 26.859375 451.753906 27.160156 447.96875 C 27.910156 438.375 27.902344 424.679688 27.132812 419.269531 C 25.289062 406.273438 22.523438 391.730469 20.148438 382.546875 C 15.21875 363.480469 12.886719 356.609375 7.558594 345.496094 C 3.082031 336.136719 2.039062 332.425781 1.324219 323.242188 C 0.800781 316.507812 1.324219 309.1875 3.496094 292.53125 C 5.757812 275.296875 7.132812 267.519531 9.835938 256.730469 C 12.648438 245.5 16.214844 228.589844 18.902344 213.691406 C 21.789062 197.730469 23.015625 193.3125 27.058594 184.476562 C 29.875 178.316406 31.34375 175.824219 37.394531 166.945312 C 40.214844 162.800781 44.058594 157.113281 45.929688 154.316406 C 52.605469 144.328125 63.824219 128.90625 72.269531 118.085938 C 79.601562 108.699219 84.898438 102.589844 92.808594 94.410156 C 100.140625 86.820312 100.195312 86.746094 102.183594 82.882812 C 103.285156 80.742188 104.613281 78.394531 105.136719 77.667969 C 116.292969 62.183594 120.21875 57.675781 128.03125 51.394531 C 143.261719 39.15625 150.84375 36.078125 165.589844 36.140625 C 171.902344 36.167969 177.382812 36.59375 184.558594 37.613281 C 190.464844 38.457031 194.109375 38.496094 201.152344 37.800781 C 204.222656 37.5 211.199219 36.886719 216.667969 36.441406 C 230.804688 35.285156 234.964844 34.273438 239.269531 30.960938 C 244.191406 27.167969 247.894531 21.515625 252.140625 11.335938 C 253.074219 9.089844 254.503906 5.667969 255.316406 3.726562 L 256.785156 0.203125 L 259.382812 0.203125 C 260.804688 0.203125 261.96875 0.253906 261.96875 0.3125 C 261.96875 0.367188 261.371094 2.105469 260.644531 4.164062 C 255.179688 19.597656 252.316406 25.058594 247.234375 29.789062 C 245.8125 31.101562 243.71875 32.742188 242.574219 33.417969 C 238.128906 36.058594 230.832031 37.574219 217.054688 38.714844 C 211.558594 39.164062 204.550781 39.792969 201.484375 40.121094 C 193.878906 40.910156 186.15625 40.855469 179.6875 39.949219 C 167.972656 38.308594 159.273438 38.171875 154.933594 39.554688 C 149.5 41.28125 143.835938 44.859375 133.953125 52.808594 C 128.078125 57.53125 123.628906 62.472656 115.027344 73.820312 C 112.472656 77.195312 111.027344 79.496094 109.570312 82.507812 L 107.589844 86.605469 L 98.3125 96.128906 C 85.941406 108.828125 81.664062 113.773438 73.207031 125.195312 C 68.371094 131.722656 57.382812 147.34375 50.0625 158.089844 C 46.503906 163.324219 42.125 169.738281 40.324219 172.355469 C 36.777344 177.515625 31.765625 187.152344 29.726562 192.730469 C 28.015625 197.40625 27.160156 200.945312 24.132812 215.96875 C 21.035156 231.296875 18.53125 243.011719 15.925781 254.335938 C 12.988281 267.109375 11.839844 274.382812 9.886719 292.53125 C 8.402344 306.324219 8.050781 313.292969 8.527344 319.332031 C 9.339844 329.722656 10.667969 334.242188 16.023438 344.871094 C 20.71875 354.1875 22.597656 359.050781 25.792969 370.160156 C 30.898438 387.921875 33.25 398.996094 36.316406 419.765625 C 37.101562 425.070312 37.113281 439.753906 36.347656 448.945312 C 36.039062 452.554688 35.710938 457.273438 35.601562 459.445312 C 35.019531 471.265625 34.21875 476.761719 30.226562 496.332031 C 29.328125 500.75 27.910156 508.792969 27.085938 514.207031 C 24.472656 531.324219 23.558594 535.859375 19.984375 549.453125 C 14.464844 570.4375 10.78125 582.539062 7.054688 591.972656 C 5.039062 597.074219 0.445312 607.84375 0.167969 608.121094 C 0.09375 608.203125 0.0351562 603.476562 0.046875 597.628906 L 0.0664062 587.003906 Z M 0.160156 366.175781 C 0.40625 366.4375 5.625 379.292969 7.042969 383.125 C 10.378906 392.15625 10.671875 393.347656 13.609375 409.765625 C 16.027344 423.296875 16.125 424.234375 16.113281 435.011719 C 16.113281 440.828125 16.300781 447.109375 16.601562 450.75 C 16.875 454.085938 17.183594 459.695312 17.285156 463.210938 C 17.46875 469.394531 17.429688 469.945312 16.125 479.773438 C 14.539062 491.710938 13.472656 497.28125 11.007812 506.664062 C 5.566406 527.351562 2.6875 539.828125 0.558594 551.914062 C 0.132812 554.355469 0.0976562 553.472656 0.0664062 539.214844 L 0.03125 523.894531 L 1.648438 517.246094 C 2.535156 513.585938 4.304688 506.691406 5.578125 501.921875 C 6.859375 497.144531 8.503906 490.210938 9.234375 486.507812 C 9.96875 482.804688 11.230469 476.453125 12.042969 472.394531 L 13.519531 465.015625 L 13.5 458.027344 C 13.492188 454.183594 13.40625 450.90625 13.300781 450.738281 C 13.199219 450.574219 12.984375 444.128906 12.824219 436.417969 C 12.488281 420.261719 12.6875 421.742188 8.242188 402.222656 C 6.027344 392.476562 3 381.671875 0.535156 374.714844 C 0.195312 373.753906 0.03125 372.097656 0.03125 369.660156 C 0.03125 367.667969 0.0859375 366.101562 0.160156 366.175781 Z M 2.589844 176.757812 C 4.851562 173.3125 12.433594 162.8125 16.945312 156.886719 C 17.808594 155.746094 20.597656 152.671875 23.136719 150.058594 C 34.332031 138.53125 34.859375 137.84375 50.835938 114.152344 C 54.445312 108.800781 56.9375 105.539062 60.496094 101.523438 C 63.125 98.554688 66.574219 94.503906 68.144531 92.535156 C 73.125 86.308594 74.859375 84.429688 79.746094 79.988281 C 86.042969 74.269531 91.871094 67.898438 97.242188 60.863281 C 104.492188 51.378906 108.933594 46.046875 110.886719 44.480469 C 111.902344 43.660156 114.339844 42.050781 116.296875 40.894531 C 118.253906 39.738281 122.875 36.800781 126.574219 34.375 C 135.617188 28.433594 139.808594 26.347656 145.839844 24.800781 C 150.699219 23.554688 163.5 21.5 169.464844 21.007812 C 176.984375 20.390625 183.933594 19.222656 187.550781 17.976562 C 190.242188 17.042969 196.8125 14.347656 207.0625 9.964844 C 209.765625 8.808594 213.007812 7.4375 214.265625 6.914062 C 217.015625 5.777344 220.675781 3.375 222.449219 1.539062 L 223.75 0.203125 L 230.863281 0.203125 L 229.617188 1.710938 C 227.9375 3.742188 224.351562 6.523438 221.875 7.710938 C 216.609375 10.238281 201.347656 16.835938 195.183594 19.257812 C 190.363281 21.140625 182.875 22.550781 173.585938 23.316406 C 165.90625 23.941406 153.351562 26.121094 148.980469 27.578125 C 144.210938 29.171875 142.113281 30.324219 133.285156 36.167969 C 128.964844 39.03125 124.195312 42.113281 122.6875 43.003906 C 118.09375 45.730469 116.285156 47.730469 105.769531 61.699219 C 100.132812 69.179688 95.921875 73.75 85.382812 83.820312 C 82.953125 86.144531 79.851562 89.542969 78.222656 91.660156 C 76.644531 93.714844 73.265625 97.773438 70.722656 100.675781 C 64.457031 107.816406 64.460938 107.804688 58.324219 116.941406 C 43.511719 138.976562 42.828125 139.851562 31.664062 151.367188 C 27.433594 155.722656 25.261719 158.347656 20.484375 164.832031 C 17.230469 169.261719 13.746094 174.054688 12.746094 175.488281 C 9.511719 180.140625 4.207031 188.8125 2.097656 192.925781 L 0.03125 196.9375 L 0.03125 180.667969 Z M 7.976562 138.089844 C 21.316406 125.417969 23.308594 123.429688 25.425781 120.707031 C 30.070312 114.75 36.6875 103.984375 42.972656 92.183594 C 48.777344 81.28125 52.898438 74.179688 62.265625 58.898438 C 78.65625 32.15625 93.839844 11.609375 104.015625 2.382812 L 106.410156 0.207031 L 112.613281 0.207031 L 107.855469 5.046875 C 102.472656 10.519531 100.394531 12.976562 95.046875 20.210938 C 87.089844 30.976562 79.082031 43.5625 68.636719 61.695312 C 60.625 75.613281 57.460938 81.402344 51.179688 93.664062 C 44.3125 107.058594 37.933594 117.652344 33.152344 123.59375 C 32.050781 124.972656 28.539062 128.574219 25.351562 131.605469 C 22.164062 134.632812 16.609375 139.914062 12.996094 143.34375 C 9.386719 146.769531 4.988281 150.957031 3.230469 152.65625 L 0.03125 155.734375 L 0.03125 145.636719 L 7.96875 138.09375 Z M 3.71875 106.234375 C 9.871094 101.394531 20.332031 92.382812 23.644531 89.070312 C 30.425781 82.296875 34.644531 75.65625 41.023438 61.710938 C 43.613281 56.050781 47.773438 48.527344 50.984375 43.699219 C 53.726562 39.574219 56.136719 36.710938 64.894531 27.117188 C 74.632812 16.449219 76.527344 14.21875 81.921875 7.003906 L 87.011719 0.203125 L 90.914062 0.203125 C 93.941406 0.203125 94.761719 0.292969 94.574219 0.613281 C 94.128906 1.375 88.757812 8.871094 86.292969 12.167969 C 83.242188 16.257812 81.644531 18.15625 76.257812 24.105469 C 67.648438 33.628906 63.152344 38.796875 60.984375 41.683594 C 57.535156 46.253906 53.527344 53.261719 48.378906 63.714844 C 39.101562 82.539062 35.542969 86.933594 17.789062 101.484375 C 12.589844 105.742188 3.132812 113.03125 0.929688 114.457031 L 0.03125 115.042969 L 0.03125 109.136719 Z M 2.359375 40.859375 C 7.90625 36.824219 15.996094 29.246094 31.992188 13.085938 L 44.78125 0.175781 L 49.367188 0.269531 L 53.960938 0.367188 L 41.320312 13.1875 C 29.722656 24.953125 22.140625 32.296875 15.761719 37.957031 C 12.113281 41.183594 9.058594 43.3125 1.261719 48.039062 L 0.03125 48.785156 L 0.03125 42.554688 L 2.359375 40.859375 " fill-opacity="1" fill-rule="nonzero" />
  </g>
  <g clip-path="url(#70c7615fbb)">
    <path class="path" fill="None" d="M 945.832031 770.933594 C 939.808594 783.046875 935.808594 796.445312 934.3125 810.003906 L 928.496094 810.003906 C 928.699219 808.03125 928.953125 806.066406 929.257812 804.105469 C 936.65625 762.003906 957.164062 734.703125 997.675781 720.097656 C 1013.867188 714.917969 1031 713.875 1047.597656 710.523438 C 1059.378906 708.238281 1070.839844 704.691406 1081.414062 699.480469 C 1105.855469 686.472656 1125.953125 667.429688 1145.207031 648.054688 C 1156.574219 636.398438 1167.792969 623.699219 1180.015625 613.082031 C 1203.441406 591.902344 1231.070312 575.972656 1260.410156 564.515625 C 1282.394531 554.863281 1305.851562 545.753906 1323.804688 529.453125 C 1344.089844 511.605469 1355 485.492188 1360.472656 459.515625 C 1373.9375 396.558594 1345.238281 350.238281 1410.261719 306.414062 C 1418.800781 300.84375 1428.382812 297.15625 1438.050781 294.042969 C 1438.695312 293.835938 1439.34375 293.632812 1439.992188 293.4375 L 1439.992188 299.511719 C 1433.652344 301.53125 1427.402344 303.851562 1421.394531 306.703125 C 1406.800781 314.359375 1393.863281 325.558594 1384.332031 339.011719 C 1375.476562 351.855469 1372.15625 367.5625 1371.089844 382.902344 C 1370.140625 405.367188 1371.757812 428.007812 1367.984375 450.292969 C 1362.691406 486.246094 1347.234375 521.792969 1316.421875 542.820312 C 1288.011719 562.179688 1254 570.78125 1224.46875 588.03125 C 1205.878906 598.558594 1188.867188 612.054688 1173.65625 626.875 C 1148.234375 652.921875 1123.695312 680.59375 1092.492188 699.933594 C 1075.445312 710.542969 1055.660156 715.523438 1035.976562 718.390625 C 1011.660156 721.976562 995.136719 724.214844 974.054688 738.351562 C 961.832031 746.484375 952.03125 757.753906 945.832031 770.929688 Z M 1409.09375 361.300781 C 1404.21875 371.203125 1401.871094 382.1875 1401.875 393.207031 C 1401.875 413.835938 1410.09375 434.585938 1425.335938 448.570312 C 1429.832031 452.78125 1434.742188 456.589844 1439.992188 459.839844 L 1439.992188 452.941406 C 1427.386719 444.457031 1416.878906 432.476562 1412.019531 417.921875 C 1403.175781 393.734375 1407.710938 363.617188 1427.535156 346.0625 C 1431.21875 342.738281 1435.472656 340.058594 1439.992188 337.863281 L 1439.992188 331.445312 C 1426.632812 337.523438 1415.308594 347.472656 1409.09375 361.304688 Z M 1397.257812 498.097656 C 1395.570312 501.269531 1394.828125 504.164062 1394.828125 506.820312 C 1394.832031 522.105469 1419.414062 529.574219 1431.117188 536.550781 C 1434.109375 538.128906 1437.09375 539.738281 1439.992188 541.484375 L 1439.992188 534.785156 C 1438.65625 534.03125 1437.308594 533.296875 1435.957031 532.578125 C 1426.785156 526.878906 1402.929688 518.820312 1400.746094 508.285156 C 1399.714844 502.191406 1404.652344 496.953125 1409.28125 493.722656 C 1417.863281 488.230469 1429.125 485.75 1439.992188 485.609375 L 1439.992188 479.835938 C 1423.515625 480.027344 1405.140625 485.066406 1397.257812 498.097656 Z M 1153.117188 734.386719 C 1149.125 717.085938 1154.171875 698.460938 1166.164062 685.402344 C 1171.191406 679.777344 1176.902344 674.898438 1182.554688 669.914062 C 1200.402344 655.359375 1214.34375 635.59375 1233.410156 622.351562 C 1243.371094 615.671875 1254.578125 611.28125 1265.234375 605.867188 C 1273.808594 601.570312 1282.226562 596.742188 1290.457031 591.605469 C 1305.914062 582.015625 1320.75 571.109375 1338.144531 565.183594 C 1367.179688 555.210938 1399.253906 557.277344 1428.761719 565.003906 C 1432.527344 565.972656 1436.257812 567.054688 1439.992188 568.136719 L 1439.992188 562.109375 C 1424.378906 557.53125 1408.421875 553.980469 1392.136719 553.113281 C 1353.347656 550.4375 1327.15625 559.886719 1295.402344 581.636719 C 1283.886719 589.039062 1272.160156 596.113281 1259.839844 602.105469 C 1249.367188 607.269531 1238.457031 611.703125 1228.867188 618.460938 C 1224.035156 621.84375 1219.519531 625.671875 1215.226562 629.710938 C 1202.839844 641.84375 1191.433594 654.945312 1178.125 666.125 C 1162.195312 679.46875 1148.8125 693.585938 1146.347656 715.214844 C 1146.125 717.40625 1146.015625 719.605469 1146.015625 721.808594 C 1146.015625 735.113281 1150.039062 748.417969 1157.304688 759.550781 C 1164.6875 770.9375 1174.742188 779.542969 1182.574219 790.839844 C 1186.550781 796.515625 1189.222656 803.179688 1189.925781 810.003906 L 1195.839844 810.003906 C 1195.675781 807.929688 1195.332031 805.875 1194.792969 803.867188 C 1187.507812 776.210938 1158.722656 765.519531 1153.117188 734.386719 Z M 1145.71875 787.375 C 1125.652344 769.964844 1101.53125 756.558594 1075.550781 750.46875 C 1062.828125 747.597656 1048.339844 747.710938 1037.71875 756.308594 C 1032.292969 760.707031 1029.703125 767.320312 1026.785156 773.453125 C 1024.425781 778.402344 1020.65625 782.503906 1015.652344 784.886719 C 1009.503906 787.65625 1002.210938 788.601562 996.34375 792.183594 C 989.578125 796.144531 984.066406 802.542969 981.554688 810 L 987.761719 810 C 989.769531 805.3125 993.253906 801.167969 997.429688 798.316406 C 1008.085938 791.40625 1020.609375 793.074219 1028.785156 781.304688 C 1033.523438 774.953125 1034.941406 766.433594 1041.039062 761.070312 C 1060.089844 746.011719 1090.679688 760.464844 1109.921875 769.554688 C 1121.363281 775.714844 1132.09375 783.300781 1141.960938 791.75 C 1147.882812 797.234375 1154.296875 802.800781 1158.117188 810 L 1164.464844 810 C 1160.769531 801.074219 1152.855469 793.738281 1145.71875 787.371094 Z M 1228.390625 773.050781 C 1212.472656 742.917969 1183.53125 725.261719 1207.417969 688.714844 C 1214.859375 677.804688 1225.6875 669.882812 1236.476562 662.542969 C 1255.90625 649.140625 1277.121094 638.722656 1297.785156 627.425781 C 1318.820312 616.046875 1339.226562 601.542969 1363.925781 599.933594 C 1375.039062 599.273438 1386.292969 600.785156 1396.84375 604.34375 C 1408.277344 608.089844 1419.253906 614.3125 1431.542969 614.5 C 1432.867188 614.675781 1436.121094 614.40625 1439.992188 613.773438 L 1439.992188 607.9375 C 1438.230469 608.222656 1436.46875 608.449219 1434.722656 608.644531 C 1418.171875 609.535156 1404.007812 598.691406 1388.054688 595.964844 C 1357.925781 589.453125 1334.054688 599.59375 1308.652344 614.726562 C 1282.960938 629.539062 1255.867188 641.960938 1231.480469 658.960938 C 1216.707031 668.902344 1202.238281 681.125 1195.925781 698.304688 C 1193.59375 704.417969 1192.589844 710.015625 1192.589844 715.253906 C 1192.589844 731.730469 1202.535156 744.648438 1212.484375 758.808594 C 1222.460938 773.011719 1232.4375 788.457031 1232.378906 810 L 1238.136719 810 C 1238.136719 808.246094 1238.074219 806.492188 1237.949219 804.734375 C 1237.21875 793.613281 1233.597656 782.84375 1228.390625 773.050781 Z M 1270.382812 760.59375 C 1263.84375 748.921875 1254.050781 739.28125 1247.875 727.382812 C 1243.476562 718.625 1241.660156 707.023438 1247.96875 698.640625 C 1260.574219 682.335938 1281.230469 674.949219 1300.035156 668.265625 C 1309.457031 664.988281 1319.015625 662.066406 1328.3125 658.152344 C 1335.328125 655.175781 1342.027344 651.671875 1348.832031 648.230469 C 1359.398438 642.910156 1371.550781 637.011719 1383.445312 641.8125 C 1389.410156 643.953125 1394.910156 647.199219 1400.207031 650.636719 C 1408.4375 656.261719 1416.53125 663.121094 1426.722656 664.574219 C 1429.363281 665.167969 1434.570312 664.996094 1439.992188 664.164062 L 1439.992188 658.332031 C 1438.097656 658.648438 1436.195312 658.890625 1434.324219 659.101562 C 1426.179688 659.902344 1418.503906 656.460938 1411.992188 651.84375 C 1403.15625 645.597656 1394 638.992188 1383.488281 635.753906 C 1367.265625 630.355469 1351.929688 640.480469 1337.789062 647.351562 C 1312.316406 660.621094 1282.605469 664.640625 1258.539062 681.007812 C 1248.59375 687.832031 1238.484375 697.394531 1238.035156 710.242188 C 1238.023438 710.664062 1238.015625 711.078125 1238.015625 711.492188 C 1238.015625 729.554688 1251.761719 743.003906 1261.308594 757.074219 C 1272.289062 772.152344 1277.167969 791.628906 1273.988281 810.003906 L 1279.804688 810.003906 C 1280.191406 807.714844 1280.472656 805.410156 1280.621094 803.089844 C 1281.445312 788.355469 1277.992188 773.269531 1270.378906 760.59375 Z M 1332.273438 796.148438 C 1337.171875 776.023438 1355.164062 769.539062 1352.773438 744.957031 C 1352.40625 738.820312 1350.914062 732.851562 1349.644531 726.859375 C 1349.09375 723.652344 1348.167969 720.25 1349.144531 717.042969 C 1354.554688 704.484375 1384.332031 706.859375 1396.140625 706.207031 C 1407.746094 706.03125 1419.601562 705.390625 1430.371094 700.644531 C 1431.910156 700.148438 1435.75 698.207031 1439.992188 695.671875 L 1439.992188 688.9375 C 1437.429688 690.644531 1434.761719 692.195312 1431.988281 693.554688 C 1418.054688 700.929688 1401.976562 700.300781 1386.667969 700.558594 C 1372.625 701.085938 1344.402344 700.457031 1342.941406 719.308594 C 1343.28125 730.175781 1348.027344 740.558594 1347.0625 751.574219 C 1346.695312 759.417969 1342.703125 766.371094 1338.117188 772.527344 C 1331.890625 780.980469 1325.917969 790.480469 1325.917969 801.335938 C 1325.917969 801.425781 1325.917969 801.511719 1325.917969 801.601562 C 1325.917969 804.441406 1326.320312 807.253906 1327.011719 810 L 1332.980469 810 C 1331.679688 805.507812 1331.300781 800.800781 1332.269531 796.148438 Z M 1390.339844 756.757812 C 1401.890625 738.660156 1413.34375 730.75 1435.074219 729.121094 C 1436.707031 729.003906 1438.347656 728.925781 1439.992188 728.84375 L 1439.992188 726.523438 C 1438.300781 726.609375 1436.621094 726.691406 1434.867188 726.824219 C 1411.242188 728.5 1399.382812 737.84375 1387.09375 757.480469 C 1377.128906 773.660156 1364.835938 790.488281 1363.496094 810 L 1365.863281 810 C 1366.714844 791.265625 1381.0625 771.742188 1390.339844 756.757812 Z M 1307.242188 772.203125 C 1303.617188 756.964844 1298.496094 741.390625 1301.75 725.5625 C 1304.625 711.734375 1314.324219 700.140625 1325.523438 691.964844 C 1334.109375 686.273438 1343.941406 682.503906 1354.019531 680.378906 C 1382.078125 674.097656 1412.125 683.050781 1439.992188 676.945312 L 1439.992188 674.546875 C 1423.628906 678.1875 1406.175781 676.738281 1389.472656 675.878906 C 1373.746094 675.242188 1357.667969 675.859375 1342.675781 681.09375 C 1321.210938 687.992188 1301.671875 706.132812 1298.796875 729.273438 C 1298.515625 731.566406 1298.390625 733.851562 1298.390625 736.125 C 1298.390625 750.421875 1303.34375 764.347656 1306.226562 778.261719 C 1308.59375 788.652344 1308.996094 799.519531 1307.210938 810 L 1309.589844 810 C 1311.585938 797.507812 1310.492188 784.480469 1307.246094 772.203125 Z M 1429.5 508.652344 C 1429.160156 509.328125 1429.011719 509.972656 1429.011719 510.585938 C 1429.011719 513.625 1432.660156 515.941406 1435.136719 517.488281 C 1435.679688 517.8125 1436.40625 517.609375 1436.722656 517.070312 C 1437.417969 515.789062 1435.777344 515.226562 1434.960938 514.640625 C 1427.210938 509.59375 1433.535156 507.226562 1439.992188 506.71875 L 1439.992188 504.316406 C 1435.515625 504.636719 1431.015625 505.976562 1429.5 508.652344 Z M 1373.066406 496.5 C 1372.222656 498.847656 1371.84375 501.15625 1371.84375 503.417969 C 1371.84375 513.730469 1379.738281 522.984375 1387.5 529.542969 C 1394.917969 536.074219 1402.949219 541.597656 1411.871094 546.023438 C 1420.691406 550.628906 1430.261719 553.480469 1439.992188 555.675781 L 1439.992188 553.355469 C 1425.984375 550.09375 1412.394531 544.996094 1400.507812 536.710938 C 1390.910156 529.769531 1379.472656 521.386719 1375.210938 509.859375 C 1370.675781 496.683594 1381.707031 485.109375 1391.941406 478.34375 C 1403.292969 470.429688 1417.726562 467.523438 1431.277344 470.609375 C 1434.246094 471.152344 1437.136719 471.953125 1439.992188 472.867188 L 1439.992188 470.441406 C 1437.234375 469.597656 1434.449219 468.867188 1431.617188 468.324219 C 1417.359375 465.070312 1401.929688 468.3125 1390.050781 476.839844 C 1382.960938 481.820312 1375.96875 488.0625 1373.066406 496.5 Z M 1154.328125 776.015625 C 1130.070312 745.84375 1106.484375 728.035156 1065.933594 735.667969 C 1049.230469 738.980469 1033.054688 744.992188 1018.101562 753.109375 C 1007.652344 758.527344 998.136719 765.605469 990.476562 774.582031 C 979.523438 786.074219 966.117188 796.835938 956.882812 810.003906 L 959.761719 810.003906 C 961.628906 807.441406 963.648438 804.972656 965.746094 802.585938 C 973.503906 793.644531 982.640625 786.089844 990.84375 777.578125 C 994.976562 773.007812 999.171875 768.558594 1004.046875 764.738281 C 1010.191406 759.894531 1017.261719 756.152344 1024.214844 752.484375 C 1051.769531 739.203125 1085.511719 728.921875 1114.664062 743.265625 C 1129.035156 750.730469 1140.257812 762.816406 1150.574219 775.09375 C 1157.890625 784.453125 1169.320312 797.476562 1174.847656 810.003906 L 1177.457031 810.003906 C 1176.554688 807.871094 1175.433594 805.730469 1174.085938 803.519531 C 1168.480469 793.691406 1161.398438 784.808594 1154.328125 776.015625 Z M 1154.328125 776.015625" />
  </g>
  <style>
    .path {
        stroke-dasharray: 1000;
        stroke: #00214D;
        stroke-width: 3px;
        animation: dash 8s ease-in-out infinite;
    }

    @keyframes dash {
        to {
            stroke-dashoffset: 2000;
        }
    }
  </style>
</svg>