<svg xmlns="http://www.w3.org/2000/svg" xmlns:xlink="http://www.w3.org/1999/xlink" width="1920" zoomAndPan="magnify" viewBox="0 0 1440 809.999993" height="1080" preserveAspectRatio="xMidYMid meet" version="1.0">
  <defs>
    <filter x="0%" y="0%" width="100%" height="100%" id="d6a93b013d">
      <feColorMatrix values="0 0 0 0 1 0 0 0 0 1 0 0 0 0 1 0 0 0 1 0" color-interpolation-filters="sRGB" />
    </filter>
    <mask id="7a7cca7828">
      <g filter="url(#d6a93b013d)">
        <rect x="-144" width="1728" fill="#000000" y="-80.999999" height="971.999992" fill-opacity="0.3" />
      </g>
    </mask>
    <clipPath id="5a1b4c1449">
      <path d="M 0 0 L 533 0 L 533 608 L 0 608 Z M 0 0 " clip-rule="nonzero" />
    </clipPath>
    <clipPath id="47549ec3a0">
      <rect x="0" width="537" y="0" height="614" />
    </clipPath>
  </defs>
  <path fill="#5271ff" d="M -156.71875 378.167969 C -246.023438 343.085938 -271.632812 281.578125 -233.550781 193.636719 C -195.46875 105.699219 -151.371094 20.988281 -101.253906 -60.496094 C -51.136719 -141.980469 21.546875 -194.621094 116.792969 -218.414062 C 212.039062 -242.207031 265.890625 -196.09375 278.34375 -80.070312 C 290.796875 35.949219 346.765625 98.964844 446.253906 108.96875 C 545.742188 118.972656 580.164062 164.023438 549.519531 244.128906 C 518.875 324.238281 482.164062 403.554688 439.394531 482.082031 C 396.625 560.609375 331.558594 595.664062 244.199219 587.234375 C 156.835938 578.808594 90.503906 550.628906 45.195312 502.691406 C -0.113281 454.753906 -67.417969 413.246094 -156.71875 378.167969 Z M -156.71875 378.167969 " fill-opacity="1" fill-rule="nonzero" />
  <g mask="url(#7a7cca7828)">
    <g transform="matrix(1, 0, 0, 1, 0, 0.000000000000039746)">
      <g clip-path="url(#47549ec3a0)">
        <g clip-path="url(#5a1b4c1449)">
          <path fill="#5271ff" d="M -201.769531 214.429688 C -267.265625 144.34375 -263.886719 77.804688 -191.636719 14.820312 C -119.390625 -48.167969 -43.097656 -105.652344 37.234375 -157.632812 C 117.566406 -209.613281 205.84375 -225.847656 302.058594 -206.339844 C 398.273438 -186.832031 427.015625 -122.035156 388.285156 -11.957031 C 349.550781 98.121094 372.929688 179.078125 458.414062 230.917969 C 543.902344 282.753906 555.5625 338.230469 493.402344 397.347656 C 431.238281 456.464844 363.945312 512.257812 291.515625 564.734375 C 219.085938 617.207031 145.261719 620.847656 70.042969 575.648438 C -5.179688 530.453125 -52.914062 476.472656 -73.160156 413.710938 C -93.40625 350.945312 -136.277344 284.519531 -201.769531 214.429688 Z M -201.769531 214.429688 " fill-opacity="1" fill-rule="nonzero" />
        </g>
      </g>
    </g>
  </g>
  <path fill="#c5cefa" d="M 1193.597656 184.296875 C 1195.039062 164.085938 1203.6875 143.875 1220.023438 131.847656 C 1236.359375 119.816406 1260.382812 118.855469 1276.238281 131.363281 C 1289.210938 141.953125 1294.015625 158.792969 1301.222656 173.710938 C 1308.429688 188.628906 1320.921875 204.027344 1337.738281 203.0625 C 1350.230469 202.582031 1360.320312 193.921875 1371.371094 188.628906 C 1394.433594 178.523438 1424.222656 187.664062 1437.675781 209.320312 C 1451.128906 230.492188 1446.324219 261.289062 1427.105469 278.128906 C 1419.417969 284.386719 1409.808594 289.679688 1405.964844 298.820312 C 1401.160156 310.371094 1409.328125 324.324219 1419.898438 330.582031 C 1430.949219 336.835938 1443.921875 338.28125 1456.414062 339.722656 C 1468.90625 341.167969 1482.359375 344.054688 1491.488281 352.714844 C 1504.941406 365.226562 1505.902344 386.882812 1497.734375 403.242188 C 1489.566406 419.601562 1474.191406 430.671875 1457.855469 438.851562 C 1432.871094 451.84375 1402.601562 458.097656 1375.214844 450.398438 C 1347.347656 442.699219 1323.324219 418.160156 1321.882812 389.285156 C 1320.921875 373.40625 1326.6875 358.007812 1327.648438 342.128906 C 1328.609375 326.25 1322.84375 307.484375 1307.949219 302.191406 C 1291.132812 296.414062 1274.796875 309.40625 1259.421875 318.070312 C 1242.125 327.210938 1221.464844 331.542969 1203.207031 325.289062 C 1184.46875 319.511719 1169.09375 302.671875 1168.132812 282.941406 C 1167.652344 274.28125 1171.015625 265.136719 1176.300781 258.402344 C 1182.066406 250.703125 1191.195312 249.257812 1197.921875 243.484375 C 1208.972656 232.417969 1192.636719 200.65625 1193.597656 184.296875 Z M 1324.285156 134.734375 C 1327.167969 145.800781 1340.621094 153.019531 1351.191406 149.167969 C 1362.242188 145.320312 1368.007812 131.847656 1363.683594 121.257812 C 1354.554688 98.164062 1318.039062 110.191406 1324.285156 134.734375 Z M 1183.027344 394.097656 C 1185.910156 405.167969 1199.363281 412.382812 1209.933594 408.535156 C 1220.503906 404.683594 1226.75 391.210938 1222.425781 380.625 C 1213.296875 357.527344 1176.300781 369.558594 1183.027344 394.097656 Z M 1183.027344 394.097656 " fill-opacity="1" fill-rule="nonzero" />
  <path class="path" fill="None" d="M 1364.644531 464.835938 C 1363.203125 464.835938 1362.242188 464.835938 1360.800781 464.835938 C 1336.296875 463.390625 1316.117188 451.84375 1303.625 441.738281 C 1291.613281 432.59375 1283.925781 422.972656 1279.121094 411.902344 C 1273.355469 398.910156 1273.355469 384.476562 1279.121094 373.40625 C 1281.042969 369.558594 1283.925781 365.707031 1286.328125 362.339844 C 1290.652344 356.566406 1294.976562 350.792969 1295.457031 344.054688 C 1296.417969 332.503906 1285.367188 323.363281 1273.835938 319.996094 C 1267.109375 318.070312 1260.382812 317.589844 1252.695312 316.625 C 1247.410156 316.144531 1241.644531 315.664062 1235.878906 314.703125 C 1209.453125 309.40625 1186.871094 288.234375 1180.144531 261.769531 C 1179.664062 260.324219 1180.625 259.363281 1182.066406 258.882812 C 1183.507812 258.402344 1184.46875 259.363281 1184.949219 260.808594 C 1191.195312 285.347656 1212.335938 305.078125 1237.320312 309.890625 C 1242.605469 310.851562 1247.890625 311.332031 1253.65625 311.8125 C 1260.863281 312.296875 1268.550781 313.257812 1275.757812 315.183594 C 1288.730469 319.03125 1301.703125 330.101562 1300.742188 344.535156 C 1300.261719 352.714844 1295.457031 358.972656 1290.652344 365.226562 C 1288.25 368.59375 1285.847656 371.964844 1283.925781 375.332031 C 1279.121094 384.957031 1279.121094 397.949219 1284.40625 409.496094 C 1288.730469 419.601562 1296.417969 428.265625 1307.46875 437.40625 C 1319.480469 446.550781 1338.21875 458.097656 1361.761719 459.542969 C 1382.421875 460.503906 1402.121094 452.804688 1414.613281 438.371094 C 1427.585938 422.972656 1430.949219 400.835938 1421.820312 383.992188 C 1416.054688 373.890625 1406.445312 365.707031 1397.316406 358.492188 C 1394.914062 356.566406 1392.511719 354.640625 1390.109375 352.714844 C 1374.253906 339.242188 1366.566406 325.769531 1367.046875 312.296875 C 1367.527344 301.707031 1372.8125 292.085938 1378.097656 282.941406 C 1384.34375 271.875 1390.109375 261.289062 1387.226562 250.703125 C 1382.902344 236.265625 1365.125 230.011719 1350.710938 229.527344 C 1346.386719 229.527344 1342.0625 229.527344 1337.257812 229.527344 C 1325.246094 229.527344 1313.234375 230.011719 1301.703125 224.71875 C 1286.808594 218.460938 1277.679688 204.988281 1268.550781 191.515625 C 1260.382812 179.964844 1252.214844 167.9375 1240.683594 161.679688 C 1223.386719 152.054688 1199.84375 156.386719 1186.871094 171.304688 C 1173.898438 186.222656 1173.417969 210.28125 1185.429688 226.160156 C 1186.390625 227.125 1185.910156 228.566406 1184.949219 229.527344 C 1183.988281 230.492188 1182.546875 230.011719 1181.585938 229.046875 C 1168.132812 211.726562 1168.613281 184.777344 1183.027344 168.417969 C 1197.441406 151.574219 1223.386719 147.246094 1242.605469 157.832031 C 1255.578125 165.046875 1263.746094 177.558594 1272.394531 189.589844 C 1281.523438 202.582031 1290.171875 215.09375 1303.625 220.867188 C 1313.714844 225.199219 1325.246094 225.199219 1337.257812 225.199219 C 1341.582031 225.199219 1346.386719 225.199219 1350.710938 225.199219 C 1367.527344 226.160156 1387.226562 232.898438 1392.03125 250.222656 C 1395.394531 263.214844 1389.148438 274.761719 1382.902344 286.3125 C 1378.097656 294.972656 1372.8125 304.113281 1372.8125 313.738281 C 1372.332031 325.769531 1379.539062 337.800781 1394.433594 350.308594 C 1396.835938 352.234375 1399.238281 354.160156 1401.640625 356.085938 C 1411.25 363.785156 1421.339844 371.964844 1427.105469 383.03125 C 1436.714844 401.316406 1433.832031 425.859375 1418.9375 442.699219 C 1405.003906 456.65625 1385.304688 464.835938 1364.644531 464.835938 Z M 1373.292969 158.792969 C 1379.058594 156.867188 1383.863281 152.054688 1386.746094 146.28125 C 1389.628906 140.027344 1389.628906 133.289062 1387.226562 127.996094 C 1381.460938 114.523438 1368.488281 112.117188 1358.398438 115.484375 C 1348.308594 118.855469 1339.179688 128.957031 1343.023438 142.914062 C 1344.464844 148.6875 1348.789062 153.980469 1354.554688 157.351562 C 1358.398438 159.273438 1362.242188 160.238281 1366.085938 160.238281 C 1368.488281 159.753906 1370.890625 159.273438 1373.292969 158.792969 Z M 1382.902344 129.441406 C 1384.824219 133.769531 1384.34375 139.0625 1382.421875 143.875 C 1380.019531 148.6875 1376.175781 152.539062 1371.851562 153.980469 C 1367.527344 155.425781 1362.242188 154.945312 1357.4375 152.539062 C 1352.632812 150.132812 1349.269531 145.800781 1347.828125 141.46875 C 1344.945312 130.402344 1351.671875 122.703125 1359.839844 119.816406 C 1361.761719 119.335938 1364.164062 118.855469 1366.566406 118.855469 C 1372.8125 118.371094 1379.539062 121.742188 1382.902344 129.441406 Z M 1231.554688 418.160156 C 1237.320312 416.234375 1242.125 411.421875 1245.007812 405.648438 C 1247.890625 399.390625 1247.890625 392.65625 1245.488281 387.363281 C 1239.722656 373.890625 1226.75 371.484375 1216.660156 374.851562 C 1206.570312 378.21875 1197.441406 388.324219 1201.285156 402.28125 C 1202.726562 408.054688 1207.050781 413.347656 1212.816406 416.714844 C 1216.660156 418.640625 1220.503906 419.601562 1224.347656 419.601562 C 1227.230469 419.601562 1229.632812 419.121094 1231.554688 418.160156 Z M 1206.089844 400.835938 C 1203.207031 389.769531 1209.933594 382.070312 1218.101562 379.183594 C 1226.269531 376.292969 1236.839844 378.21875 1241.164062 388.804688 C 1243.085938 393.136719 1242.605469 398.429688 1240.683594 403.242188 C 1238.28125 408.054688 1234.4375 411.902344 1230.113281 413.347656 C 1225.789062 414.789062 1220.503906 414.308594 1215.699219 411.902344 C 1210.894531 409.496094 1207.53125 405.648438 1206.089844 400.835938 Z M 1206.089844 400.835938 " fill-opacity="1" fill-rule="nonzero" />
  <path fill="#5271ff" d="M 1453.3125 440.828125 C 1453.3125 440.828125 1407.390625 364.769531 1324.109375 376.148438 C 1269.410156 383.605469 1222.1875 403.5 1239.582031 540.3125 C 1250.878906 629.6875 1163.351562 648.46875 1085.480469 604.988281 C 1012.460938 564.347656 948.773438 609.949219 946.28125 654.730469 C 942.488281 722.722656 909.320312 775.515625 839.375 769.148438 C 757.339844 761.667969 767.28125 846.242188 767.28125 846.242188 L 1453.3125 846.242188 Z M 1453.3125 440.828125 " fill-opacity="1" fill-rule="nonzero" />
  <path fill="#c5cefa" d="M 1453.3125 581.828125 C 1453.3125 581.828125 1423.351562 532.21875 1369 539.648438 C 1333.335938 544.503906 1302.527344 557.5 1313.875 646.71875 C 1321.273438 705.082031 1264.1875 717.179688 1213.359375 688.898438 C 1165.632812 662.371094 1124.164062 692.136719 1122.546875 721.34375 C 1120.082031 765.675781 1098.445312 800.109375 1052.84375 795.96875 C 999.335938 791.089844 1005.804688 846.375 1005.804688 846.375 L 1453.3125 846.375 Z M 1453.3125 581.828125 " fill-opacity="1" fill-rule="nonzero" />
  <style>
    .path {
        stroke-dasharray: 500;
        stroke: #5271ff;
        stroke-width: 10px;
        animation: dash 10s linear infinite;
    }

    @keyframes dash {
        to {
            stroke-dashoffset: 1000;
        }
    }
  </style>
</svg>